<svg width="222" height="58" viewBox="0 0 222 58" fill="none" xmlns="http://www.w3.org/2000/svg">
<path d="M26 7H87C90.866 7 94 10.134 94 14V44C94 47.866 90.866 51 87 51H26V7Z" fill="#A21515"/>
<path d="M89 8H201C212.046 8 221 16.9543 221 28V30C221 41.0457 212.046 50 201 50H89V8Z" stroke="#A11515" stroke-width="2"/>
<path d="M40.768 34.4351H48.5799V37H36.7769V35.1268L44.4398 24.0902H36.7876V21.5039H48.4096V23.3345L40.768 34.4351ZM57.7268 37C57.5849 36.7233 57.4821 36.3792 57.4182 35.9676C56.6732 36.7978 55.7047 37.2129 54.5127 37.2129C53.3845 37.2129 52.448 36.8865 51.703 36.2337C50.9651 35.5809 50.5961 34.7579 50.5961 33.7646C50.5961 32.5442 51.0467 31.6076 51.9478 30.9548C52.8559 30.3021 54.165 29.9721 55.875 29.965H57.2905V29.3052C57.2905 28.773 57.1521 28.3473 56.8754 28.028C56.6058 27.7087 56.1765 27.5491 55.5876 27.5491C55.0697 27.5491 54.6617 27.6733 54.3637 27.9216C54.0728 28.1699 53.9273 28.5105 53.9273 28.9433H50.8515C50.8515 28.2764 51.0573 27.6591 51.4688 27.0915C51.8803 26.5238 52.4622 26.0804 53.2143 25.7611C53.9664 25.4347 54.8107 25.2715 55.7473 25.2715C57.1663 25.2715 58.2909 25.6298 59.1211 26.3465C59.9583 27.056 60.3769 28.0564 60.3769 29.3478V34.3393C60.384 35.4319 60.5366 36.2585 60.8346 36.8191V37H57.7268ZM55.1832 34.8608C55.6373 34.8608 56.0559 34.7614 56.4391 34.5628C56.8222 34.357 57.106 34.0838 57.2905 33.7433V31.7637H56.1411C54.6014 31.7637 53.7819 32.2958 53.6825 33.3601L53.6719 33.5411C53.6719 33.9242 53.8067 34.2399 54.0763 34.4883C54.346 34.7366 54.7149 34.8608 55.1832 34.8608ZM66.2246 25.4844L66.3204 26.8147C67.1434 25.7859 68.2467 25.2715 69.6303 25.2715C70.8507 25.2715 71.7589 25.6298 72.3549 26.3465C72.9509 27.0631 73.256 28.1345 73.2702 29.5606V37H70.1944V29.6351C70.1944 28.9823 70.0525 28.5105 69.7687 28.2196C69.4848 27.9216 69.013 27.7726 68.3531 27.7726C67.4875 27.7726 66.8383 28.1416 66.4055 28.8795V37H63.3297V25.4844H66.2246ZM82.9386 37C82.7967 36.7233 82.6938 36.3792 82.63 35.9676C81.885 36.7978 80.9165 37.2129 79.7245 37.2129C78.5963 37.2129 77.6597 36.8865 76.9147 36.2337C76.1768 35.5809 75.8079 34.7579 75.8079 33.7646C75.8079 32.5442 76.2584 31.6076 77.1595 30.9548C78.0677 30.3021 79.3768 29.9721 81.0867 29.965H82.5023V29.3052C82.5023 28.773 82.3639 28.3473 82.0872 28.028C81.8176 27.7087 81.3883 27.5491 80.7994 27.5491C80.2814 27.5491 79.8735 27.6733 79.5755 27.9216C79.2845 28.1699 79.1391 28.5105 79.1391 28.9433H76.0633C76.0633 28.2764 76.2691 27.6591 76.6806 27.0915C77.0921 26.5238 77.6739 26.0804 78.426 25.7611C79.1781 25.4347 80.0225 25.2715 80.959 25.2715C82.3781 25.2715 83.5027 25.6298 84.3328 26.3465C85.1701 27.056 85.5887 28.0564 85.5887 29.3478V34.3393C85.5958 35.4319 85.7483 36.2585 86.0463 36.8191V37H82.9386ZM80.395 34.8608C80.8491 34.8608 81.2677 34.7614 81.6508 34.5628C82.034 34.357 82.3178 34.0838 82.5023 33.7433V31.7637H81.3528C79.8131 31.7637 78.9936 32.2958 78.8943 33.3601L78.8837 33.5411C78.8837 33.9242 79.0185 34.2399 79.2881 34.4883C79.5577 34.7366 79.9267 34.8608 80.395 34.8608Z" fill="white"/>
<path d="M113.452 36H111.586V29.4935H104.49V36H102.634V21.9234H104.49V27.9756H111.586V21.9234H113.452V36ZM121.206 36.1934C119.788 36.1934 118.634 35.7293 117.745 34.8012C116.855 33.8666 116.41 32.6194 116.41 31.0597V30.731C116.41 29.6933 116.607 28.7684 117 27.9563C117.4 27.1377 117.954 26.4996 118.663 26.042C119.378 25.5779 120.152 25.3459 120.983 25.3459C122.343 25.3459 123.4 25.7938 124.154 26.6897C124.908 27.5856 125.286 28.8683 125.286 30.5376V31.282H118.199C118.225 32.3133 118.524 33.1479 119.098 33.786C119.678 34.4177 120.413 34.7335 121.302 34.7335C121.934 34.7335 122.469 34.6046 122.907 34.3468C123.346 34.089 123.729 33.7474 124.058 33.322L125.15 34.1728C124.274 35.5198 122.959 36.1934 121.206 36.1934ZM120.983 26.8154C120.261 26.8154 119.656 27.0797 119.166 27.6082C118.676 28.1303 118.373 28.865 118.257 29.8125H123.497V29.6771C123.445 28.7684 123.2 28.0658 122.762 27.5695C122.324 27.0668 121.731 26.8154 120.983 26.8154ZM134.218 36C134.115 35.7938 134.031 35.4264 133.967 34.8979C133.136 35.7615 132.143 36.1934 130.989 36.1934C129.958 36.1934 129.11 35.9033 128.447 35.3232C127.789 34.7367 127.46 33.9955 127.46 33.0996C127.46 32.0104 127.873 31.166 128.698 30.5666C129.529 29.9607 130.696 29.6578 132.198 29.6578H133.938V28.836C133.938 28.2108 133.751 27.7146 133.377 27.3472C133.003 26.9733 132.452 26.7864 131.724 26.7864C131.086 26.7864 130.551 26.9476 130.119 27.2698C129.687 27.5921 129.471 27.982 129.471 28.4396H127.673C127.673 27.9176 127.857 27.4148 128.224 26.9314C128.598 26.4416 129.101 26.0549 129.732 25.7713C130.371 25.4877 131.07 25.3459 131.83 25.3459C133.036 25.3459 133.98 25.6488 134.663 26.2547C135.346 26.8541 135.701 27.6823 135.727 28.7394V33.554C135.727 34.5144 135.849 35.2781 136.094 35.8453V36H134.218ZM131.25 34.6368C131.811 34.6368 132.343 34.4918 132.846 34.2018C133.348 33.9117 133.712 33.5347 133.938 33.0706V30.9243H132.536C130.345 30.9243 129.249 31.5656 129.249 32.8482C129.249 33.409 129.436 33.8473 129.81 34.1631C130.184 34.4789 130.664 34.6368 131.25 34.6368ZM140.87 36H139.081V21.15H140.87V36ZM146.564 23.0063V25.5393H148.517V26.9218H146.564V33.409C146.564 33.8279 146.651 34.1438 146.825 34.3564C146.999 34.5627 147.295 34.6658 147.714 34.6658C147.92 34.6658 148.204 34.6271 148.565 34.5498V36C148.094 36.1289 147.637 36.1934 147.192 36.1934C146.393 36.1934 145.79 35.9517 145.384 35.4683C144.978 34.9849 144.775 34.2984 144.775 33.409V26.9218H142.87V25.5393H144.775V23.0063H146.564ZM152.799 26.8058C153.592 25.8325 154.623 25.3459 155.893 25.3459C158.104 25.3459 159.219 26.5931 159.238 29.0874V36H157.449V29.0777C157.443 28.3236 157.269 27.7661 156.927 27.4052C156.592 27.0442 156.067 26.8638 155.351 26.8638C154.771 26.8638 154.262 27.0185 153.824 27.3278C153.386 27.6372 153.044 28.0433 152.799 28.546V36H151.01V21.15H152.799V26.8058ZM172.947 31.5334C172.773 33.0223 172.222 34.1728 171.293 34.9849C170.372 35.7905 169.144 36.1934 167.61 36.1934C165.947 36.1934 164.613 35.5972 163.607 34.4048C162.608 33.2124 162.109 31.6172 162.109 29.6191V28.2656C162.109 26.9572 162.341 25.8067 162.805 24.8142C163.276 23.8216 163.939 23.061 164.797 22.5325C165.654 21.9976 166.646 21.7301 167.774 21.7301C169.27 21.7301 170.468 22.149 171.371 22.9869C172.273 23.8184 172.798 24.9721 172.947 26.448H171.081C170.92 25.3266 170.568 24.5145 170.027 24.0117C169.492 23.509 168.741 23.2576 167.774 23.2576C166.588 23.2576 165.657 23.6959 164.98 24.5725C164.31 25.449 163.975 26.6962 163.975 28.314V29.6771C163.975 31.2047 164.294 32.4196 164.932 33.322C165.57 34.2243 166.463 34.6755 167.61 34.6755C168.641 34.6755 169.431 34.4435 169.979 33.9794C170.533 33.5089 170.9 32.6936 171.081 31.5334H172.947ZM182.063 36C181.96 35.7938 181.876 35.4264 181.812 34.8979C180.98 35.7615 179.988 36.1934 178.834 36.1934C177.803 36.1934 176.955 35.9033 176.291 35.3232C175.634 34.7367 175.305 33.9955 175.305 33.0996C175.305 32.0104 175.718 31.166 176.543 30.5666C177.374 29.9607 178.541 29.6578 180.043 29.6578H181.783V28.836C181.783 28.2108 181.596 27.7146 181.222 27.3472C180.848 26.9733 180.297 26.7864 179.569 26.7864C178.931 26.7864 178.396 26.9476 177.964 27.2698C177.532 27.5921 177.316 27.982 177.316 28.4396H175.518C175.518 27.9176 175.702 27.4148 176.069 26.9314C176.443 26.4416 176.946 26.0549 177.577 25.7713C178.215 25.4877 178.915 25.3459 179.675 25.3459C180.88 25.3459 181.825 25.6488 182.508 26.2547C183.191 26.8541 183.546 27.6823 183.571 28.7394V33.554C183.571 34.5144 183.694 35.2781 183.939 35.8453V36H182.063ZM179.095 34.6368C179.656 34.6368 180.188 34.4918 180.69 34.2018C181.193 33.9117 181.557 33.5347 181.783 33.0706V30.9243H180.381C178.19 30.9243 177.094 31.5656 177.094 32.8482C177.094 33.409 177.281 33.8473 177.655 34.1631C178.028 34.4789 178.509 34.6368 179.095 34.6368ZM191.827 27.1441C191.557 27.099 191.264 27.0765 190.948 27.0765C189.775 27.0765 188.979 27.576 188.56 28.575V36H186.771V25.5393H188.511L188.54 26.7478C189.127 25.8132 189.958 25.3459 191.035 25.3459C191.383 25.3459 191.647 25.391 191.827 25.4813V27.1441ZM198.024 36.1934C196.606 36.1934 195.453 35.7293 194.563 34.8012C193.674 33.8666 193.229 32.6194 193.229 31.0597V30.731C193.229 29.6933 193.426 28.7684 193.819 27.9563C194.218 27.1377 194.773 26.4996 195.482 26.042C196.197 25.5779 196.97 25.3459 197.802 25.3459C199.162 25.3459 200.219 25.7938 200.973 26.6897C201.727 27.5856 202.104 28.8683 202.104 30.5376V31.282H195.018C195.043 32.3133 195.343 33.1479 195.917 33.786C196.497 34.4177 197.231 34.7335 198.121 34.7335C198.753 34.7335 199.288 34.6046 199.726 34.3468C200.164 34.089 200.548 33.7474 200.876 33.322L201.969 34.1728C201.092 35.5198 199.777 36.1934 198.024 36.1934ZM197.802 26.8154C197.08 26.8154 196.474 27.0797 195.984 27.6082C195.494 28.1303 195.192 28.865 195.076 29.8125H200.316V29.6771C200.264 28.7684 200.019 28.0658 199.581 27.5695C199.143 27.0668 198.55 26.8154 197.802 26.8154Z" fill="#A11515"/>
<rect x="2.14819" y="10.7407" width="24.7037" height="38.6667" fill="white"/>
<path fill-rule="evenodd" clip-rule="evenodd" d="M0 14.5C0 6.49187 6.49187 0 14.5 0C22.5081 0 29 6.49187 29 14.5V43.5C29 51.5081 22.5081 58 14.5 58C6.49187 58 0 51.5081 0 43.5V14.5ZM11.8149 10.7408H17.1852V23.6296H25.7778V29H17.1852V47.2593H11.8149V29H3.22228V23.6296H11.8149V10.7408Z" fill="#19985B"/>
</svg>
