<svg width="23" height="19" viewBox="0 0 23 19" fill="none" xmlns="http://www.w3.org/2000/svg">
<path d="M1.43677 5.00672L10.2999 10.9154C10.6691 11.1618 11.1029 11.2932 11.5468 11.2932C11.9906 11.2932 12.4245 11.1618 12.7937 10.9154L21.6568 5.00672M3.68343 17.3634H19.4101C20.006 17.3634 20.5774 17.1267 20.9987 16.7053C21.4201 16.284 21.6568 15.7126 21.6568 15.1167V3.88338C21.6568 3.28753 21.4201 2.71608 20.9987 2.29475C20.5774 1.87342 20.006 1.63672 19.4101 1.63672H3.68343C3.08758 1.63672 2.51613 1.87342 2.0948 2.29475C1.67347 2.71608 1.43677 3.28753 1.43677 3.88338V15.1167C1.43677 15.7126 1.67347 16.284 2.0948 16.7053C2.51613 17.1267 3.08758 17.3634 3.68343 17.3634Z" stroke="#20243D" stroke-width="2" stroke-linecap="round" stroke-linejoin="round"/>
</svg>
