<svg width="30" height="30" viewBox="0 0 30 30" fill="none" xmlns="http://www.w3.org/2000/svg">
<path d="M1.48218 14.593L4.48218 11.593M4.48218 11.593L14.9822 1.09302L25.4822 11.593M4.48218 11.593V26.593C4.48218 26.9908 4.64021 27.3724 4.92152 27.6537C5.20282 27.935 5.58435 28.093 5.98218 28.093H10.4822M25.4822 11.593L28.4822 14.593M25.4822 11.593V26.593C25.4822 26.9908 25.3241 27.3724 25.0428 27.6537C24.7615 27.935 24.38 28.093 23.9822 28.093H19.4822M10.4822 28.093C10.88 28.093 11.2615 27.935 11.5428 27.6537C11.8241 27.3724 11.9822 26.9908 11.9822 26.593V20.593C11.9822 20.1952 12.1402 19.8137 12.4215 19.5324C12.7028 19.2511 13.0844 19.093 13.4822 19.093H16.4822C16.88 19.093 17.2615 19.2511 17.5428 19.5324C17.8241 19.8137 17.9822 20.1952 17.9822 20.593V26.593C17.9822 26.9908 18.1402 27.3724 18.4215 27.6537C18.7028 27.935 19.0844 28.093 19.4822 28.093M10.4822 28.093H19.4822" stroke="#5B69E6" stroke-width="2" stroke-linecap="round" stroke-linejoin="round"/>
</svg>
