<svg width="145" height="141" viewBox="0 0 145 141" fill="none" xmlns="http://www.w3.org/2000/svg">
<g clip-path="url(#clip0_25_222)">
<path d="M91.9447 31.6569H53.0879C52.2024 31.658 51.3535 32.0102 50.7274 32.6363C50.1013 33.2625 49.749 34.1114 49.748 34.9968V121.356L49.3026 121.492L39.7704 124.411C39.3187 124.549 38.8307 124.502 38.4137 124.28C37.9967 124.059 37.6846 123.681 37.5461 123.229L9.1922 30.6126C9.05421 30.1609 9.10124 29.6728 9.32295 29.2557C9.54466 28.8386 9.9229 28.5266 10.3745 28.3882L25.0636 23.8904L67.6478 10.8558L82.3368 6.358C82.5603 6.2892 82.7953 6.26516 83.0281 6.28725C83.261 6.30934 83.4872 6.37714 83.6938 6.48675C83.9004 6.59636 84.0834 6.74564 84.2322 6.92605C84.3811 7.10645 84.4929 7.31444 84.5613 7.53811L91.8089 31.2116L91.9447 31.6569Z" fill="#F2F2F2"/>
<path d="M100.424 31.2121L91.6891 2.68011C91.5438 2.20472 91.3062 1.76261 90.99 1.37907C90.6737 0.995532 90.285 0.678068 89.846 0.444819C89.407 0.211571 88.9264 0.0671085 88.4315 0.0196929C87.9367 -0.0277228 87.4373 0.0228373 86.962 0.168479L66.3101 6.48987L23.7282 19.5268L3.07623 25.8504C2.11685 26.145 1.31355 26.8082 0.84265 27.6944C0.37175 28.5807 0.271724 29.6176 0.564532 30.5775L30.4191 128.088C30.657 128.863 31.1369 129.541 31.7886 130.023C32.4402 130.505 33.2291 130.766 34.0397 130.767C34.4148 130.767 34.7879 130.711 35.1462 130.6L49.3031 126.267L49.7485 126.129V125.663L49.3031 125.799L35.0149 130.174C34.1681 130.433 33.2534 130.344 32.4716 129.929C31.6898 129.514 31.1046 128.805 30.8444 127.959L0.992136 30.4461C0.863234 30.0268 0.818309 29.5862 0.85993 29.1495C0.901551 28.7129 1.0289 28.2887 1.23469 27.9013C1.44048 27.5139 1.72066 27.1709 2.0592 26.892C2.39774 26.613 2.78797 26.4036 3.20756 26.2757L23.8595 19.952L66.4415 6.91738L87.0935 0.593768C87.4117 0.496643 87.7426 0.44712 88.0753 0.44681C88.7894 0.448414 89.4843 0.678637 90.0581 1.10376C90.6319 1.52888 91.0544 2.12656 91.2639 2.80926L99.9589 31.2121L100.097 31.6574H100.56L100.424 31.2121Z" fill="#3F3D56"/>
<path d="M27.7143 28.4608C27.2852 28.4605 26.8674 28.3226 26.5223 28.0675C26.1772 27.8124 25.923 27.4534 25.7969 27.0432L22.9289 17.6754C22.8519 17.4237 22.8251 17.1594 22.8502 16.8974C22.8753 16.6354 22.9518 16.381 23.0753 16.1486C23.1987 15.9161 23.3668 15.7103 23.5698 15.5429C23.7728 15.3754 24.0068 15.2496 24.2585 15.1726L63.4335 3.17914C63.9417 3.02406 64.4907 3.07695 64.9599 3.3262C65.4292 3.57544 65.7804 4.00069 65.9364 4.50859L68.8044 13.8765C68.9594 14.3847 68.9064 14.9336 68.6572 15.4028C68.4079 15.8721 67.9828 16.2233 67.4749 16.3794L28.2998 28.3728C28.1101 28.431 27.9128 28.4607 27.7143 28.4608Z" fill="#6C63FF"/>
<path d="M42.7379 10.0098C45.1974 10.0098 47.1912 8.01598 47.1912 5.55652C47.1912 3.09706 45.1974 1.10327 42.7379 1.10327C40.2785 1.10327 38.2847 3.09706 38.2847 5.55652C38.2847 8.01598 40.2785 10.0098 42.7379 10.0098Z" fill="#6C63FF"/>
<path d="M42.7379 8.37644C44.2953 8.37644 45.5579 7.11391 45.5579 5.55651C45.5579 3.9991 44.2953 2.73657 42.7379 2.73657C41.1805 2.73657 39.918 3.9991 39.918 5.55651C39.918 7.11391 41.1805 8.37644 42.7379 8.37644Z" fill="white"/>
<path d="M134.582 129.628H59.3225C58.8207 129.628 58.3397 129.428 57.9848 129.073C57.63 128.719 57.4304 128.237 57.4299 127.736V37.5574C57.4304 37.0556 57.63 36.5746 57.9848 36.2198C58.3396 35.8649 58.8207 35.6654 59.3225 35.6648H134.582C135.084 35.6654 135.565 35.865 135.92 36.2198C136.275 36.5746 136.474 37.0556 136.475 37.5574V127.736C136.474 128.237 136.275 128.719 135.92 129.073C135.565 129.428 135.084 129.628 134.582 129.628Z" fill="#E6E6E6"/>
<path d="M99.9583 31.2114H53.0879C52.0844 31.2128 51.1225 31.6121 50.4129 32.3217C49.7033 33.0312 49.3041 33.9932 49.3026 34.9967V125.798L49.748 125.663V34.9967C49.749 34.1112 50.1013 33.2623 50.7274 32.6362C51.3535 32.0101 52.2024 31.6578 53.0879 31.6568H100.096L99.9583 31.2114ZM140.817 31.2114H53.0879C52.0844 31.2128 51.1225 31.6121 50.4129 32.3217C49.7033 33.0312 49.3041 33.9932 49.3026 34.9967V136.976C49.3041 137.98 49.7033 138.942 50.4129 139.651C51.1225 140.361 52.0844 140.76 53.0879 140.761H140.817C141.82 140.76 142.782 140.361 143.492 139.651C144.201 138.942 144.601 137.98 144.602 136.976V34.9967C144.601 33.9932 144.201 33.0312 143.492 32.3217C142.782 31.6121 141.82 31.2128 140.817 31.2114ZM144.157 136.976C144.156 137.862 143.804 138.71 143.177 139.337C142.551 139.963 141.702 140.315 140.817 140.316H53.0879C52.2024 140.315 51.3535 139.963 50.7274 139.337C50.1013 138.71 49.749 137.862 49.748 136.976V34.9967C49.749 34.1112 50.1013 33.2623 50.7274 32.6362C51.3535 32.0101 52.2024 31.6578 53.0879 31.6568H140.817C141.702 31.6578 142.551 32.0101 143.177 32.6362C143.804 33.2623 144.156 34.1112 144.157 34.9967V136.976Z" fill="#3F3D56"/>
<path d="M117.437 41.0087H76.4675C75.9362 41.0081 75.4268 40.7968 75.0511 40.4211C74.6755 40.0454 74.4641 39.536 74.4635 39.0047V29.2076C74.4641 28.6763 74.6755 28.1669 75.0512 27.7912C75.4268 27.4155 75.9362 27.2042 76.4675 27.2036H117.437C117.969 27.2042 118.478 27.4155 118.854 27.7912C119.229 28.1669 119.441 28.6763 119.441 29.2076V39.0047C119.441 39.536 119.229 40.0454 118.854 40.4211C118.478 40.7968 117.969 41.0081 117.437 41.0087Z" fill="#6C63FF"/>
<path d="M96.9524 27.8716C99.4119 27.8716 101.406 25.8778 101.406 23.4183C101.406 20.9589 99.4119 18.9651 96.9524 18.9651C94.4929 18.9651 92.4992 20.9589 92.4992 23.4183C92.4992 25.8778 94.4929 27.8716 96.9524 27.8716Z" fill="#6C63FF"/>
<path d="M96.9524 26.1307C98.4504 26.1307 99.6648 24.9163 99.6648 23.4183C99.6648 21.9202 98.4504 20.7058 96.9524 20.7058C95.4544 20.7058 94.24 21.9202 94.24 23.4183C94.24 24.9163 95.4544 26.1307 96.9524 26.1307Z" fill="white"/>
</g>
<defs>
<clipPath id="clip0_25_222">
<rect width="144.204" height="140.761" fill="white" transform="translate(0.397858)"/>
</clipPath>
</defs>
</svg>
