<svg width="23" height="25" viewBox="0 0 23 25" fill="none" xmlns="http://www.w3.org/2000/svg">
<path d="M11.5479 16.2917V18.8194M3.96455 23.875H19.1312C19.8016 23.875 20.4446 23.6087 20.9186 23.1346C21.3927 22.6606 21.659 22.0176 21.659 21.3472V13.7639C21.659 13.0935 21.3927 12.4505 20.9186 11.9765C20.4446 11.5024 19.8016 11.2361 19.1312 11.2361H3.96455C3.29414 11.2361 2.65119 11.5024 2.17714 11.9765C1.70309 12.4505 1.43677 13.0935 1.43677 13.7639V21.3472C1.43677 22.0176 1.70309 22.6606 2.17714 23.1346C2.65119 23.6087 3.29414 23.875 3.96455 23.875ZM16.6034 11.2361V6.18056C16.6034 4.83974 16.0708 3.55384 15.1227 2.60574C14.1746 1.65764 12.8887 1.125 11.5479 1.125C10.2071 1.125 8.92116 1.65764 7.97306 2.60574C7.02496 3.55384 6.49232 4.83974 6.49232 6.18056V11.2361H16.6034Z" stroke="#3F3F46" stroke-width="2" stroke-linecap="round" stroke-linejoin="round"/>
</svg>
