<svg width="30" height="30" viewBox="0 0 30 30" fill="none" xmlns="http://www.w3.org/2000/svg">
<path d="M15.4158 3.83837C16.2219 2.92443 17.2873 2.27764 18.4701 1.98406C19.6529 1.69049 20.897 1.76406 22.037 2.19498C23.177 2.62589 24.1587 3.39373 24.8515 4.39631C25.5443 5.3989 25.9154 6.58869 25.9154 7.80737C25.9154 9.02606 25.5443 10.2159 24.8515 11.2184C24.1587 12.221 23.177 12.9889 22.037 13.4198C20.897 13.8507 19.6529 13.9243 18.4701 13.6307C17.2873 13.3371 16.2219 12.6903 15.4158 11.7764M19.9158 28.8074H1.91577V27.3074C1.91577 24.9204 2.86398 22.6312 4.55181 20.9434C6.23964 19.2556 8.52882 18.3074 10.9158 18.3074C13.3027 18.3074 15.5919 19.2556 17.2797 20.9434C18.9676 22.6312 19.9158 24.9204 19.9158 27.3074V28.8074ZM19.9158 28.8074H28.9158V27.3074C28.916 25.7274 28.5003 24.1753 27.7105 22.8069C26.9207 21.4386 25.7845 20.3023 24.4163 19.5122C23.0481 18.7221 21.496 18.3062 19.9161 18.3061C18.3362 18.306 16.784 18.7219 15.4158 19.5119M16.9158 7.80737C16.9158 9.39867 16.2836 10.9248 15.1584 12.05C14.0332 13.1752 12.5071 13.8074 10.9158 13.8074C9.32447 13.8074 7.79835 13.1752 6.67313 12.05C5.54791 10.9248 4.91577 9.39867 4.91577 7.80737C4.91577 6.21608 5.54791 4.68995 6.67313 3.56473C7.79835 2.43951 9.32447 1.80737 10.9158 1.80737C12.5071 1.80737 14.0332 2.43951 15.1584 3.56473C16.2836 4.68995 16.9158 6.21608 16.9158 7.80737Z" stroke="#3F3F46" stroke-width="2" stroke-linecap="round" stroke-linejoin="round"/>
</svg>
